<svg width="24" height="24" viewBox="0 0 24 24" fill="none" xmlns="http://www.w3.org/2000/svg">
<path d="M14.414 5.586C14.0389 5.21106 13.5303 5.00043 13 5.00043C12.4697 5.00043 11.961 5.21106 11.586 5.586L5.17099 12L11.586 18.414C11.976 18.805 12.488 19 13 19C13.512 19 14.024 18.805 14.414 18.414C14.7889 18.0389 14.9996 17.5303 14.9996 17C14.9996 16.4697 14.7889 15.9611 14.414 15.586L10.829 12L14.414 8.414C14.7889 8.03894 14.9996 7.53033 14.9996 7C14.9996 6.46967 14.7889 5.96106 14.414 5.586Z" fill="black"/>
</svg>
