<svg width="16" height="16" viewBox="0 0 16 16" fill="none" xmlns="http://www.w3.org/2000/svg">
<path d="M3.50001 12.5C3.50001 12.6326 3.44733 12.7598 3.35356 12.8536C3.25979 12.9473 3.13261 13 3.00001 13C2.8674 13 2.74022 12.9473 2.64645 12.8536C2.55268 12.7598 2.50001 12.6326 2.50001 12.5V3.707L1.35401 4.854C1.30752 4.90049 1.25233 4.93736 1.19159 4.96252C1.13085 4.98768 1.06575 5.00063 1.00001 5.00063C0.934262 5.00063 0.869162 4.98768 0.808423 4.96252C0.747683 4.93736 0.692494 4.90049 0.646006 4.854C0.599518 4.80751 0.562642 4.75232 0.537483 4.69158C0.512324 4.63084 0.499374 4.56574 0.499374 4.5C0.499374 4.43425 0.512324 4.36915 0.537483 4.30841C0.562642 4.24767 0.599518 4.19249 0.646006 4.146L2.64601 2.147L2.65301 2.14C2.74701 2.0487 2.8732 1.99813 3.00424 1.99926C3.13527 2.00038 3.26058 2.0531 3.35301 2.146L5.35301 4.146C5.39949 4.19242 5.43638 4.24754 5.46157 4.30822C5.48675 4.3689 5.49974 4.43395 5.49978 4.49964C5.49983 4.56534 5.48694 4.6304 5.46184 4.69112C5.43674 4.75183 5.39993 4.80701 5.35351 4.8535C5.30708 4.89999 5.25196 4.93687 5.19128 4.96206C5.1306 4.98724 5.06556 5.00023 4.99986 5.00028C4.93416 5.00032 4.8691 4.98743 4.80838 4.96233C4.74767 4.93723 4.69249 4.90042 4.64601 4.854L3.50001 3.707V12.5ZM7.00001 3.5C7.00001 3.36739 7.05268 3.24021 7.14645 3.14644C7.24022 3.05268 7.3674 3 7.50001 3H14.5C14.6326 3 14.7598 3.05268 14.8536 3.14644C14.9473 3.24021 15 3.36739 15 3.5C15 3.63261 14.9473 3.75978 14.8536 3.85355C14.7598 3.94732 14.6326 4 14.5 4H7.50001C7.3674 4 7.24022 3.94732 7.14645 3.85355C7.05268 3.75978 7.00001 3.63261 7.00001 3.5ZM7.50001 6C7.3674 6 7.24022 6.05268 7.14645 6.14644C7.05268 6.24021 7.00001 6.36739 7.00001 6.5C7.00001 6.63261 7.05268 6.75978 7.14645 6.85355C7.24022 6.94732 7.3674 7 7.50001 7H12.5C12.6326 7 12.7598 6.94732 12.8536 6.85355C12.9473 6.75978 13 6.63261 13 6.5C13 6.36739 12.9473 6.24021 12.8536 6.14644C12.7598 6.05268 12.6326 6 12.5 6H7.50001ZM7.50001 9C7.3674 9 7.24022 9.05268 7.14645 9.14644C7.05268 9.24021 7.00001 9.36739 7.00001 9.5C7.00001 9.63261 7.05268 9.75978 7.14645 9.85355C7.24022 9.94732 7.3674 10 7.50001 10H10.5C10.6326 10 10.7598 9.94732 10.8536 9.85355C10.9473 9.75978 11 9.63261 11 9.5C11 9.36739 10.9473 9.24021 10.8536 9.14644C10.7598 9.05268 10.6326 9 10.5 9H7.50001ZM7.50001 12C7.3674 12 7.24022 12.0527 7.14645 12.1464C7.05268 12.2402 7.00001 12.3674 7.00001 12.5C7.00001 12.6326 7.05268 12.7598 7.14645 12.8536C7.24022 12.9473 7.3674 13 7.50001 13H8.50001C8.63261 13 8.75979 12.9473 8.85356 12.8536C8.94733 12.7598 9.00001 12.6326 9.00001 12.5C9.00001 12.3674 8.94733 12.2402 8.85356 12.1464C8.75979 12.0527 8.63261 12 8.50001 12H7.50001Z" fill="#911414"/>
</svg>
