<svg width="16" height="16" viewBox="0 0 16 16" fill="none" xmlns="http://www.w3.org/2000/svg">
<path d="M3.50001 3.5C3.50001 3.36739 3.44733 3.24022 3.35356 3.14645C3.25979 3.05268 3.13261 3 3 3C2.8674 3 2.74022 3.05268 2.64645 3.14645C2.55268 3.24022 2.50001 3.36739 2.50001 3.5L2.50001 12.293L1.35401 11.146C1.30752 11.0995 1.25233 11.0626 1.19159 11.0375C1.13085 11.0123 1.06575 10.9994 1.00001 10.9994C0.934262 10.9994 0.869162 11.0123 0.808422 11.0375C0.747683 11.0626 0.692494 11.0995 0.646006 11.146C0.599518 11.1925 0.562642 11.2477 0.537482 11.3084C0.512323 11.3692 0.499374 11.4343 0.499374 11.5C0.499374 11.5657 0.512323 11.6308 0.537483 11.6916C0.562642 11.7523 0.599518 11.8075 0.646006 11.854L2.64601 13.853L2.65301 13.86C2.74701 13.9513 2.8732 14.0019 3.00424 14.0007C3.13527 13.9996 3.26058 13.9469 3.35301 13.854L5.35301 11.854C5.39949 11.8076 5.43638 11.7525 5.46157 11.6918C5.48675 11.6311 5.49974 11.5661 5.49978 11.5004C5.49983 11.4347 5.48694 11.3696 5.46184 11.3089C5.43674 11.2482 5.39993 11.193 5.35351 11.1465C5.30708 11.1 5.25196 11.0631 5.19128 11.0379C5.1306 11.0128 5.06556 10.9998 4.99986 10.9997C4.93416 10.9997 4.8691 11.0126 4.80838 11.0377C4.74767 11.0628 4.69249 11.0996 4.64601 11.146L3.50001 12.293L3.50001 3.5ZM7.00001 12.5C7.00001 12.6326 7.05268 12.7598 7.14645 12.8536C7.24022 12.9473 7.3674 13 7.50001 13L14.5 13C14.6326 13 14.7598 12.9473 14.8536 12.8536C14.9473 12.7598 15 12.6326 15 12.5C15 12.3674 14.9473 12.2402 14.8536 12.1464C14.7598 12.0527 14.6326 12 14.5 12L7.50001 12C7.3674 12 7.24022 12.0527 7.14645 12.1464C7.05268 12.2402 7.00001 12.3674 7.00001 12.5ZM7.50001 10C7.3674 10 7.24022 9.94732 7.14645 9.85356C7.05268 9.75979 7.00001 9.63261 7.00001 9.5C7.00001 9.36739 7.05268 9.24022 7.14645 9.14645C7.24022 9.05268 7.3674 9 7.50001 9L12.5 9C12.6326 9 12.7598 9.05268 12.8536 9.14645C12.9473 9.24022 13 9.36739 13 9.5C13 9.63261 12.9473 9.75979 12.8536 9.85356C12.7598 9.94732 12.6326 10 12.5 10L7.50001 10ZM7.50001 7C7.3674 7 7.24022 6.94732 7.14645 6.85356C7.05268 6.75979 7.00001 6.63261 7.00001 6.5C7.00001 6.36739 7.05268 6.24022 7.14645 6.14645C7.24022 6.05268 7.3674 6 7.50001 6L10.5 6C10.6326 6 10.7598 6.05268 10.8536 6.14645C10.9473 6.24022 11 6.36739 11 6.5C11 6.63261 10.9473 6.75979 10.8536 6.85356C10.7598 6.94732 10.6326 7 10.5 7L7.50001 7ZM7.50001 4C7.3674 4 7.24022 3.94732 7.14645 3.85356C7.05268 3.75979 7.00001 3.63261 7.00001 3.5C7.00001 3.36739 7.05268 3.24022 7.14645 3.14645C7.24022 3.05268 7.3674 3 7.50001 3L8.5 3C8.63261 3 8.75979 3.05268 8.85356 3.14645C8.94733 3.24022 9 3.36739 9 3.5C9 3.63261 8.94733 3.75979 8.85356 3.85356C8.75979 3.94732 8.63261 4 8.5 4L7.50001 4Z" fill="black"/>
</svg>
